<?xml version="1.0" standalone="no"?>
<!DOCTYPE svg PUBLIC "-//W3C//DTD SVG 20010904//EN"
 "http://www.w3.org/TR/2001/REC-SVG-20010904/DTD/svg10.dtd">
<svg version="1.0" xmlns="http://www.w3.org/2000/svg"
 width="225.000000pt" height="225.000000pt" viewBox="0 0 225.000000 225.000000"
 preserveAspectRatio="xMidYMid meet">

<g transform="translate(0.000000,225.000000) scale(0.100000,-0.100000)"
fill="#000000" stroke="none">
<path d="M1036 1790 c-61 -16 -153 -69 -192 -113 -20 -22 -49 -68 -66 -102
-98 -210 10 -455 231 -525 260 -82 520 124 498 394 -8 89 -58 197 -118 251
-65 58 -155 96 -241 100 -40 3 -90 0 -112 -5z"/>
<path d="M770 1043 c-99 -56 -198 -161 -249 -263 -41 -85 -70 -192 -71 -262 0
-72 -41 -68 675 -68 716 0 675 -4 675 68 -1 70 -30 177 -71 261 -51 104 -152
210 -251 265 l-68 37 -57 -35 c-141 -86 -315 -86 -455 -1 -31 19 -58 35 -60
35 -1 0 -32 -17 -68 -37z"/>
</g>
</svg>
