<?xml version="1.0" standalone="no"?>
<!DOCTYPE svg PUBLIC "-//W3C//DTD SVG 20010904//EN"
 "http://www.w3.org/TR/2001/REC-SVG-20010904/DTD/svg10.dtd">
<svg version="1.0" xmlns="http://www.w3.org/2000/svg"
 width="218.000000pt" height="207.000000pt" viewBox="0 0 218.000000 207.000000"
 preserveAspectRatio="xMidYMid meet">

<g transform="translate(0.000000,207.000000) scale(0.100000,-0.100000)"
fill="#000000" stroke="none">
<path d="M733 1765 c-202 -44 -380 -223 -429 -431 -29 -124 -8 -278 54 -399
135 -265 487 -376 759 -239 l64 33 260 -264 c148 -150 276 -271 296 -280 95
-45 194 68 137 155 -9 14 -133 142 -276 285 l-259 261 35 74 c41 90 56 158 56
248 0 152 -57 288 -165 398 -142 145 -334 202 -532 159z m266 -104 c85 -26
137 -60 204 -130 185 -193 173 -498 -26 -677 -239 -214 -606 -139 -744 153
-34 69 -38 88 -41 174 -6 149 29 248 126 351 56 60 126 105 200 129 77 24 202
25 281 0z"/>
<path d="M780 1610 c-62 -13 -159 -63 -195 -100 -27 -28 -28 -32 -13 -47 15
-15 19 -14 55 14 89 70 181 96 288 80 99 -15 110 -14 110 7 0 37 -151 65 -245
46z"/>
<path d="M1195 1370 c-3 -6 1 -41 9 -78 9 -37 17 -76 18 -87 2 -12 11 -20 23
-20 18 0 20 6 18 61 0 33 -8 77 -17 97 -14 36 -38 48 -51 27z"/>
</g>
</svg>
