<?xml version="1.0" standalone="no"?>
<!DOCTYPE svg PUBLIC "-//W3C//DTD SVG 20010904//EN"
 "http://www.w3.org/TR/2001/REC-SVG-20010904/DTD/svg10.dtd">
<svg version="1.0" xmlns="http://www.w3.org/2000/svg"
 width="225.000000pt" height="225.000000pt" viewBox="0 0 225.000000 225.000000"
 preserveAspectRatio="xMidYMid meet">

<g transform="translate(0.000000,225.000000) scale(0.100000,-0.100000)"
fill="#000000" stroke="none">
<path d="M16 2078 c-20 -28 -20 -48 0 -76 15 -21 21 -22 175 -22 87 0 159 -1
159 -2 1 -2 76 -291 168 -643 155 -593 169 -640 192 -652 20 -10 156 -12 637
-10 529 2 614 4 627 17 13 13 276 996 276 1030 0 6 -11 22 -25 35 l-24 25
-834 0 -833 0 -34 137 c-19 75 -43 147 -53 160 -18 23 -21 23 -217 23 -194 0
-199 -1 -214 -22z m1004 -528 l0 -100 -200 0 -199 0 -11 43 c-6 23 -18 65 -26
94 -7 28 -14 54 -14 57 0 3 101 6 225 6 l225 0 0 -100z m500 0 l0 -100 -185 0
-185 0 0 100 0 100 185 0 185 0 0 -100z m580 92 c0 -6 -31 -125 -46 -174 -5
-16 -24 -18 -205 -18 l-199 0 0 100 0 100 225 0 c124 0 225 -3 225 -8z m-1080
-417 l0 -95 -159 0 -159 0 -21 85 c-11 46 -21 89 -21 95 0 6 62 10 180 10
l180 0 0 -95z m500 0 l0 -95 -185 0 -185 0 0 95 0 95 185 0 185 0 0 -95z m474
8 c-13 -49 -24 -91 -24 -95 0 -5 -72 -8 -160 -8 l-160 0 0 95 0 95 184 0 184
0 -24 -87z m-974 -333 l0 -100 -114 0 c-101 0 -115 2 -120 18 -15 49 -46 168
-46 174 0 5 63 8 140 8 l140 0 0 -100z m500 0 l0 -100 -185 0 -185 0 0 100 0
100 185 0 185 0 0 -100z m410 93 c0 -5 -11 -48 -23 -98 l-23 -90 -117 -3 -117
-3 0 101 0 100 140 0 c77 0 140 -3 140 -7z"/>
<path d="M836 606 c-166 -62 -211 -273 -85 -393 130 -123 347 -58 389 118 33
139 -67 273 -214 285 -30 3 -67 -2 -90 -10z m143 -142 c76 -64 34 -186 -65
-186 -45 0 -82 25 -100 69 -42 99 82 187 165 117z"/>
<path d="M1700 611 c-110 -36 -174 -119 -173 -226 0 -72 18 -119 64 -164 92
-92 236 -95 328 -8 47 45 71 101 71 170 0 93 -44 168 -123 208 -44 23 -128 33
-167 20z m111 -137 c60 -30 73 -118 25 -163 -46 -44 -109 -45 -150 -4 -36 35
-43 84 -19 125 33 56 87 72 144 42z"/>
</g>
</svg>
